<?xml version="1.0" encoding="utf-8"?>
<!-- Generator: Adobe Illustrator 21.1.0, SVG Export Plug-In . SVG Version: 6.00 Build 0)  -->
<svg version="1.1" id="Capa_1" xmlns="http://www.w3.org/2000/svg" xmlns:xlink="http://www.w3.org/1999/xlink" x="0px" y="0px"
	 viewBox="0 0 1056 213.4" style="enable-background:new 0 0 1056 213.4;" xml:space="preserve">
<style type="text/css">
	.st0{fill:#FFFFFF;}
	.st1{fill:url(#SVGID_1_);}
	.st2{fill:#FE0048;}
</style>
<g>
	<g>
		<path class="st0" d="M257.2,142.9H173c1.5,7.9,5.3,14.2,11.6,18.8s14,6.9,23.2,6.9c11.8,0,21.5-3.9,29.1-11.7l13.5,15.5
			c-4.8,5.8-10.9,10.1-18.3,13.1c-7.4,3-15.7,4.4-24.9,4.4c-11.8,0-22.2-2.3-31.2-7s-15.9-11.2-20.8-19.6
			c-4.9-8.4-7.3-17.9-7.3-28.4s2.4-19.9,7.1-28.2c4.8-8.4,11.4-14.9,19.8-19.6c8.4-4.7,18-7,28.5-7s19.8,2.3,28,6.9
			s14.7,11.1,19.3,19.5s6.9,18.1,6.9,29C257.6,137.2,257.4,139.7,257.2,142.9z M182.9,107.2c-5.6,4.8-8.9,11.1-10.2,19h60.9
			c-1.1-7.8-4.4-14.1-9.9-18.9s-12.3-7.2-20.5-7.2C195.3,100.1,188.5,102.5,182.9,107.2z"/>
		<path class="st0" d="M296,182.9c-8.8-4.7-15.7-11.2-20.7-19.6c-5-8.4-7.4-17.9-7.4-28.4c0-10.6,2.5-20,7.4-28.3
			c5-8.3,11.8-14.8,20.6-19.5c8.8-4.7,18.8-7,30.1-7c10.6,0,19.9,2.1,27.8,6.4c8,4.3,14,10.5,18,18.5l-19.3,11.3
			c-3.1-5-6.9-8.7-11.6-11.2c-4.6-2.5-9.7-3.7-15.2-3.7c-9.4,0-17.2,3-23.3,9.1c-6.2,6.1-9.2,14.2-9.2,24.4s3,18.3,9.1,24.4
			c6.1,6.1,13.9,9.1,23.4,9.1c5.5,0,10.6-1.2,15.2-3.7s8.5-6.2,11.6-11.2l19.3,11.3c-4.2,8-10.2,14.2-18.2,18.6
			c-8,4.4-17.2,6.5-27.6,6.5C314.8,190,304.8,187.6,296,182.9z"/>
		<path class="st0" d="M405.7,182.9c-8.7-4.7-15.5-11.2-20.4-19.6c-4.9-8.4-7.3-17.9-7.3-28.4c0-10.6,2.4-20,7.3-28.3
			s11.7-14.8,20.4-19.5c8.7-4.7,18.5-7,29.4-7c11,0,20.8,2.3,29.6,7c8.7,4.7,15.5,11.2,20.4,19.5s7.3,17.8,7.3,28.3
			c0,10.6-2.4,20.1-7.3,28.4c-4.9,8.4-11.7,14.9-20.4,19.6c-8.7,4.7-18.6,7-29.6,7C424.2,190,414.5,187.6,405.7,182.9z M458,159.2
			c6-6.2,9-14.3,9-24.3s-3-18.2-9-24.3c-6-6.2-13.7-9.2-22.9-9.2c-9.2,0-16.9,3.1-22.8,9.2c-6,6.2-8.9,14.3-8.9,24.3
			s3,18.2,8.9,24.3c6,6.2,13.6,9.2,22.8,9.2C444.3,168.5,452,165.4,458,159.2z"/>
		<path class="st0" d="M611.4,82.8v105.7h-13.7v-20.9c-4.3,7.1-10,12.5-17,16.3s-15,5.6-23.8,5.6c-9.9,0-18.9-2.3-26.9-6.8
			c-8-4.6-14.3-10.9-18.9-19.1c-4.6-8.2-6.8-17.5-6.8-27.9c0-10.5,2.3-19.8,6.8-27.9c4.6-8.2,10.9-14.5,18.9-19s17-6.7,26.9-6.7
			c8.6,0,16.3,1.8,23.2,5.3c6.9,3.6,12.6,8.7,17,15.6V82.8H611.4z M578.1,171.8c6-3.4,10.7-8.3,14.1-14.6c3.4-6.3,5.1-13.5,5.1-21.5
			s-1.7-15.2-5.1-21.5c-3.4-6.3-8.1-11.2-14.1-14.6s-12.6-5.1-20-5.1c-7.5,0-14.2,1.7-20.2,5.1s-10.7,8.3-14.1,14.6
			c-3.4,6.3-5.1,13.5-5.1,21.5s1.7,15.2,5.1,21.5c3.4,6.3,8.1,11.2,14.1,14.6c6,3.4,12.7,5.1,20.2,5.1
			C565.5,176.9,572.2,175.2,578.1,171.8z"/>
		<path class="st0" d="M662,182.7c-8.2-4.6-14.7-11-19.4-19.2s-7-17.5-7-27.8s2.3-19.6,7-27.7c4.7-8.2,11.2-14.5,19.4-19.1
			s17.6-6.8,28-6.8c9.1,0,17.3,1.8,24.4,5.3c7.2,3.6,12.8,8.7,17,15.6l-10.7,7.2c-3.5-5.2-7.9-9.1-13.3-11.8
			c-5.4-2.6-11.2-3.9-17.5-3.9c-7.6,0-14.5,1.7-20.6,5.1s-10.9,8.3-14.3,14.6c-3.4,6.3-5.1,13.5-5.1,21.5c0,8.2,1.7,15.4,5.1,21.6
			c3.4,6.2,8.2,11.1,14.3,14.5s13,5.1,20.6,5.1c6.3,0,12.1-1.3,17.5-3.8s9.8-6.4,13.3-11.7l10.7,7.2c-4.2,6.8-9.9,12-17.1,15.6
			c-7.2,3.6-15.3,5.3-24.3,5.3C679.5,189.6,670.2,187.3,662,182.7z"/>
		<path class="st0" d="M804.8,182.1c-2.7,2.4-6,4.3-9.9,5.5c-3.9,1.3-8,1.9-12.3,1.9c-9.9,0-17.6-2.7-22.9-8c-5.4-5.4-8-12.9-8-22.7
			V59.7H766v23.1h32v12.1h-32V158c0,6.3,1.5,11.1,4.6,14.4c3.1,3.3,7.6,4.9,13.5,4.9c6.4,0,11.7-1.8,15.7-5.4L804.8,182.1z"/>
		<path class="st0" d="M921,82.8v105.7h-13.7v-19.3c-3.8,6.4-8.9,11.4-15.5,15s-14.1,5.3-22.5,5.3c-13.8,0-24.7-3.9-32.7-11.6
			c-8-7.7-12-19-12-33.9V82.8H839v59.9c0,11.1,2.7,19.6,8.2,25.3c5.5,5.8,13.3,8.6,23.5,8.6c11.1,0,19.9-3.4,26.3-10.2
			c6.4-6.8,9.6-16.2,9.6-28.2V82.8H921z"/>
		<path class="st0" d="M1052.4,82.8v105.7h-13.7v-20.9c-4.3,7.1-10,12.5-17,16.3s-15,5.6-23.8,5.6c-9.9,0-18.9-2.3-26.9-6.8
			c-8-4.6-14.3-10.9-18.9-19.1c-4.6-8.2-6.8-17.5-6.8-27.9c0-10.5,2.3-19.8,6.8-27.9c4.6-8.2,10.9-14.5,18.9-19s17-6.7,26.9-6.7
			c8.6,0,16.3,1.8,23.2,5.3c6.9,3.6,12.6,8.7,17,15.6V82.8H1052.4z M1019.2,171.8c6-3.4,10.7-8.3,14.1-14.6s5.1-13.5,5.1-21.5
			s-1.7-15.2-5.1-21.5s-8.1-11.2-14.1-14.6s-12.6-5.1-20-5.1c-7.5,0-14.2,1.7-20.2,5.1s-10.7,8.3-14.1,14.6
			c-3.4,6.3-5.1,13.5-5.1,21.5s1.7,15.2,5.1,21.5c3.4,6.3,8.1,11.2,14.1,14.6c6,3.4,12.7,5.1,20.2,5.1
			C1006.5,176.9,1013.2,175.2,1019.2,171.8z"/>
	</g>
	<g>
		<g>
			
				<linearGradient id="SVGID_1_" gradientUnits="userSpaceOnUse" x1="60.5" y1="5.8" x2="60.5" y2="143.9" gradientTransform="matrix(1 0 0 -1 0 216)">
				<stop  offset="0" style="stop-color:#FF5C2A"/>
				<stop  offset="1" style="stop-color:#FE0048"/>
			</linearGradient>
			<path class="st1" d="M60.5,72.1c-30.3,0-54.8,27.1-54.8,60.4s39.6,77.7,54.8,77.7c12.5,0,54.8-44.4,54.8-77.7
				S90.7,72.1,60.5,72.1z M60.5,157c-19.1,0-34.6-15.5-34.6-34.6s15.5-34.6,34.6-34.6s34.6,15.5,34.6,34.6S79.6,157,60.5,157z"/>
		</g>
		<g>
			<g>
				<g>
					<path class="st2" d="M60.5,2.3L60.5,2.3c4.9,0,8.8,4.1,8.5,9l-2.2,41.8c-0.2,3.4-3,6-6.3,6l0,0c-3.4,0-6.2-2.6-6.3-6L52,11.3
						C51.7,6.4,55.6,2.3,60.5,2.3z"/>
				</g>
			</g>
			<g>
				<path class="st2" d="M9.2,27.2L9.2,27.2c3.2-2.5,7.8-1.8,10.2,1.5l19.9,28.6c1.6,2.3,1.1,5.4-1.1,7.1l0,0
					c-2.2,1.7-5.4,1.4-7.2-0.7L8.2,37.5C5.5,34.4,6,29.7,9.2,27.2z"/>
			</g>
			<g>
				<path class="st2" d="M112.7,37.5L90,63.8c-1.8,2.1-5,2.4-7.2,0.7l0,0c-2.2-1.7-2.7-4.9-1.1-7.1l19.9-28.6c2.3-3.3,7-4,10.2-1.5
					l0,0C114.9,29.7,115.4,34.4,112.7,37.5z"/>
			</g>
		</g>
	</g>
</g>
</svg>
